<mxfile host="app.diagrams.net" agent="Mozilla/5.0 (X11; Linux x86_64) AppleWebKit/537.36 (KHTML, like Gecko) Chrome/135.0.0.0 Safari/537.36" version="27.1.1">
  <diagram name="Page-1" id="iY2ZwtdyktODJGigQ__7">
    <mxGraphModel dx="2633" dy="923" grid="1" gridSize="1" guides="1" tooltips="1" connect="1" arrows="1" fold="1" page="1" pageScale="1" pageWidth="850" pageHeight="1100" math="0" shadow="0">
      <root>
        <mxCell id="0" />
        <mxCell id="1" parent="0" />
        <mxCell id="ZyXsbxzqqTQg3_kuBfod-11" value="" style="group;rounded=0;" parent="1" connectable="0" vertex="1">
          <mxGeometry x="-410" y="550" width="819" height="710" as="geometry" />
        </mxCell>
        <mxCell id="I24JLP84bpcqeDf-n0PY-37" value="Moving Forward" style="text;html=1;align=center;verticalAlign=middle;resizable=0;points=[];autosize=1;strokeColor=none;fillColor=none;fontSize=19;rounded=0;" parent="ZyXsbxzqqTQg3_kuBfod-11" vertex="1">
          <mxGeometry x="110" width="160" height="40" as="geometry" />
        </mxCell>
        <mxCell id="ZyXsbxzqqTQg3_kuBfod-1" value="" style="endArrow=classic;startArrow=classic;html=1;rounded=0;fillColor=#fa6800;strokeColor=#C73500;" parent="ZyXsbxzqqTQg3_kuBfod-11" edge="1">
          <mxGeometry width="50" height="50" relative="1" as="geometry">
            <mxPoint x="40" y="260" as="sourcePoint" />
            <mxPoint x="40" y="110" as="targetPoint" />
          </mxGeometry>
        </mxCell>
        <mxCell id="ZyXsbxzqqTQg3_kuBfod-2" value="" style="endArrow=classic;startArrow=classic;html=1;rounded=0;strokeColor=#C73500;" parent="ZyXsbxzqqTQg3_kuBfod-11" edge="1">
          <mxGeometry width="50" height="50" relative="1" as="geometry">
            <mxPoint x="265" y="320" as="sourcePoint" />
            <mxPoint x="115" y="320" as="targetPoint" />
          </mxGeometry>
        </mxCell>
        <mxCell id="ZyXsbxzqqTQg3_kuBfod-7" value="&lt;font face=&quot;Courier New&quot; style=&quot;font-size: 18px; color: rgb(199, 53, 0);&quot;&gt;w&lt;/font&gt;" style="text;html=1;align=center;verticalAlign=middle;resizable=0;points=[];autosize=1;strokeColor=none;fillColor=none;rounded=0;" parent="ZyXsbxzqqTQg3_kuBfod-11" vertex="1">
          <mxGeometry x="175" y="313" width="30" height="40" as="geometry" />
        </mxCell>
        <mxCell id="ZyXsbxzqqTQg3_kuBfod-10" value="" style="group;rounded=0;" parent="ZyXsbxzqqTQg3_kuBfod-11" connectable="0" vertex="1">
          <mxGeometry width="819" height="710" as="geometry" />
        </mxCell>
        <mxCell id="I24JLP84bpcqeDf-n0PY-38" value="" style="group;rounded=0;" parent="ZyXsbxzqqTQg3_kuBfod-10" vertex="1" connectable="0">
          <mxGeometry x="59.926829268292686" y="50" width="209.7439024390244" height="230" as="geometry" />
        </mxCell>
        <mxCell id="I24JLP84bpcqeDf-n0PY-3" value="" style="rounded=0;whiteSpace=wrap;html=1;strokeColor=default;fillColor=none;" parent="I24JLP84bpcqeDf-n0PY-38" vertex="1">
          <mxGeometry x="74.32366512854315" y="58.97435897435897" width="116.52439024390242" height="147.43589743589743" as="geometry" />
        </mxCell>
        <mxCell id="I24JLP84bpcqeDf-n0PY-17" value="" style="endArrow=classic;html=1;rounded=0;" parent="I24JLP84bpcqeDf-n0PY-38" edge="1">
          <mxGeometry x="-1" y="36" width="50" height="50" relative="1" as="geometry">
            <mxPoint x="132.2709294660514" y="129.74358974358972" as="sourcePoint" />
            <mxPoint x="132.2709294660514" y="17.692307692307693" as="targetPoint" />
            <mxPoint x="-5" y="45" as="offset" />
          </mxGeometry>
        </mxCell>
        <mxCell id="I24JLP84bpcqeDf-n0PY-21" value="x&lt;sub&gt;b&lt;/sub&gt;" style="edgeLabel;html=1;align=center;verticalAlign=middle;resizable=0;points=[];fontSize=20;rounded=0;" parent="I24JLP84bpcqeDf-n0PY-17" vertex="1" connectable="0">
          <mxGeometry x="0.8526" y="1" relative="1" as="geometry">
            <mxPoint x="26" as="offset" />
          </mxGeometry>
        </mxCell>
        <mxCell id="I24JLP84bpcqeDf-n0PY-18" value="" style="endArrow=classic;html=1;rounded=0;" parent="I24JLP84bpcqeDf-n0PY-38" edge="1">
          <mxGeometry x="-1" y="36" width="50" height="50" relative="1" as="geometry">
            <mxPoint x="132.2709294660514" y="129.74358974358972" as="sourcePoint" />
            <mxPoint y="129.74358974358972" as="targetPoint" />
            <mxPoint x="-5" y="45" as="offset" />
          </mxGeometry>
        </mxCell>
        <mxCell id="I24JLP84bpcqeDf-n0PY-22" value="y&lt;sub&gt;b&lt;/sub&gt;" style="edgeLabel;html=1;align=center;verticalAlign=middle;resizable=0;points=[];fontSize=20;rounded=0;" parent="I24JLP84bpcqeDf-n0PY-18" vertex="1" connectable="0">
          <mxGeometry x="0.7714" y="-2" relative="1" as="geometry">
            <mxPoint y="22" as="offset" />
          </mxGeometry>
        </mxCell>
        <mxCell id="I24JLP84bpcqeDf-n0PY-23" value="0" style="rounded=0;whiteSpace=wrap;html=1;fillColor=light-dark(#FFFFFF,#292929);" parent="I24JLP84bpcqeDf-n0PY-38" vertex="1">
          <mxGeometry x="55.427818061964395" y="35.38461538461539" width="18.895847066578774" height="47.17948717948718" as="geometry" />
        </mxCell>
        <mxCell id="I24JLP84bpcqeDf-n0PY-24" value="2" style="rounded=0;whiteSpace=wrap;html=1;fillColor=light-dark(#FFFFFF,#292929);strokeColor=light-dark(#FFFFFF,#FFFFFF);" parent="I24JLP84bpcqeDf-n0PY-38" vertex="1">
          <mxGeometry x="55.427818061964395" y="182.82051282051282" width="18.895847066578774" height="47.17948717948718" as="geometry" />
        </mxCell>
        <mxCell id="I24JLP84bpcqeDf-n0PY-25" value="3" style="rounded=0;whiteSpace=wrap;html=1;fillColor=light-dark(#FFFFFF,#292929);" parent="I24JLP84bpcqeDf-n0PY-38" vertex="1">
          <mxGeometry x="190.84805537244557" y="182.82051282051282" width="18.895847066578774" height="47.17948717948718" as="geometry" />
        </mxCell>
        <mxCell id="I24JLP84bpcqeDf-n0PY-26" value="1" style="rounded=0;whiteSpace=wrap;html=1;fillColor=light-dark(#FFFFFF,#292929);" parent="I24JLP84bpcqeDf-n0PY-38" vertex="1">
          <mxGeometry x="190.84805537244557" y="35.38461538461539" width="18.895847066578774" height="47.17948717948718" as="geometry" />
        </mxCell>
        <mxCell id="I24JLP84bpcqeDf-n0PY-27" value="" style="endArrow=classic;html=1;rounded=0;strokeColor=light-dark(#000000,#FF3333);" parent="I24JLP84bpcqeDf-n0PY-38" edge="1">
          <mxGeometry x="-1" y="36" width="50" height="50" relative="1" as="geometry">
            <mxPoint x="64.56081081081079" y="35.38461538461539" as="sourcePoint" />
            <mxPoint x="64.56081081081079" as="targetPoint" />
            <mxPoint x="-5" y="45" as="offset" />
          </mxGeometry>
        </mxCell>
        <mxCell id="I24JLP84bpcqeDf-n0PY-29" value="" style="endArrow=classic;html=1;rounded=0;strokeColor=light-dark(#000000,#FF3333);" parent="I24JLP84bpcqeDf-n0PY-38" edge="1">
          <mxGeometry x="-1" y="36" width="50" height="50" relative="1" as="geometry">
            <mxPoint x="64.56081081081079" y="182.82051282051282" as="sourcePoint" />
            <mxPoint x="64.56081081081079" y="147.43589743589743" as="targetPoint" />
            <mxPoint x="-5" y="45" as="offset" />
          </mxGeometry>
        </mxCell>
        <mxCell id="I24JLP84bpcqeDf-n0PY-30" value="" style="endArrow=classic;html=1;rounded=0;strokeColor=light-dark(#000000,#FF3333);" parent="I24JLP84bpcqeDf-n0PY-38" edge="1">
          <mxGeometry x="-1" y="36" width="50" height="50" relative="1" as="geometry">
            <mxPoint x="199.98104812129202" y="35.38461538461539" as="sourcePoint" />
            <mxPoint x="199.98104812129202" as="targetPoint" />
            <mxPoint x="-5" y="45" as="offset" />
          </mxGeometry>
        </mxCell>
        <mxCell id="I24JLP84bpcqeDf-n0PY-31" value="" style="endArrow=classic;html=1;rounded=0;strokeColor=light-dark(#000000,#FF3333);" parent="I24JLP84bpcqeDf-n0PY-38" edge="1">
          <mxGeometry x="-1" y="36" width="50" height="50" relative="1" as="geometry">
            <mxPoint x="199.98104812129202" y="182.82051282051282" as="sourcePoint" />
            <mxPoint x="199.98104812129202" y="147.43589743589743" as="targetPoint" />
            <mxPoint x="-5" y="45" as="offset" />
          </mxGeometry>
        </mxCell>
        <mxCell id="I24JLP84bpcqeDf-n0PY-32" value="" style="endArrow=classic;html=1;rounded=0;strokeColor=light-dark(#000000,#3333FF);" parent="I24JLP84bpcqeDf-n0PY-38" edge="1">
          <mxGeometry x="-1" y="36" width="50" height="50" relative="1" as="geometry">
            <mxPoint x="132.2709294660514" y="129.74358974358972" as="sourcePoint" />
            <mxPoint x="132.2709294660514" y="94.35897435897436" as="targetPoint" />
            <mxPoint x="-5" y="45" as="offset" />
          </mxGeometry>
        </mxCell>
        <mxCell id="I24JLP84bpcqeDf-n0PY-35" value="v&lt;sub&gt;b,x&lt;/sub&gt;" style="edgeLabel;html=1;align=center;verticalAlign=middle;resizable=0;points=[];fontSize=18;rounded=0;" parent="I24JLP84bpcqeDf-n0PY-32" vertex="1" connectable="0">
          <mxGeometry x="0.2667" y="-2" relative="1" as="geometry">
            <mxPoint x="-27" y="-2" as="offset" />
          </mxGeometry>
        </mxCell>
        <mxCell id="I24JLP84bpcqeDf-n0PY-33" value="" style="endArrow=classic;html=1;rounded=0;strokeColor=light-dark(#000000,#3333FF);" parent="I24JLP84bpcqeDf-n0PY-38" edge="1">
          <mxGeometry x="-1" y="36" width="50" height="50" relative="1" as="geometry">
            <mxPoint x="132.2709294660514" y="129.74358974358972" as="sourcePoint" />
            <mxPoint x="81.88200395517468" y="129.74358974358972" as="targetPoint" />
            <mxPoint x="-5" y="45" as="offset" />
          </mxGeometry>
        </mxCell>
        <mxCell id="I24JLP84bpcqeDf-n0PY-36" value="v&lt;sub&gt;b,y&lt;/sub&gt;" style="edgeLabel;html=1;align=center;verticalAlign=middle;resizable=0;points=[];fontSize=18;rounded=0;" parent="I24JLP84bpcqeDf-n0PY-33" vertex="1" connectable="0">
          <mxGeometry x="0.375" y="-2" relative="1" as="geometry">
            <mxPoint y="22" as="offset" />
          </mxGeometry>
        </mxCell>
        <mxCell id="6wpOpZpvDPQAx9jSgBEB-12" value="" style="curved=1;endArrow=classic;html=1;rounded=0;fillColor=#0050ef;strokeColor=light-dark(#001DBC,#0000FF);" parent="I24JLP84bpcqeDf-n0PY-38" edge="1">
          <mxGeometry width="50" height="50" relative="1" as="geometry">
            <mxPoint x="145.36251219512195" y="117.69" as="sourcePoint" />
            <mxPoint x="135.37470731707316" y="147.69" as="targetPoint" />
            <Array as="points">
              <mxPoint x="119.80371951219512" y="117.69" />
            </Array>
          </mxGeometry>
        </mxCell>
        <mxCell id="6wpOpZpvDPQAx9jSgBEB-13" value="&lt;h3&gt;&lt;font face=&quot;Courier New&quot;&gt;w&lt;sub&gt;b,z&lt;/sub&gt;&lt;/font&gt;&lt;/h3&gt;" style="edgeLabel;html=1;align=center;verticalAlign=middle;resizable=0;points=[];rounded=0;labelBackgroundColor=none;" parent="6wpOpZpvDPQAx9jSgBEB-12" connectable="0" vertex="1">
          <mxGeometry x="0.9566" y="1" relative="1" as="geometry">
            <mxPoint x="24" y="4" as="offset" />
          </mxGeometry>
        </mxCell>
        <mxCell id="I24JLP84bpcqeDf-n0PY-84" value="" style="group;rounded=0;" parent="ZyXsbxzqqTQg3_kuBfod-10" vertex="1" connectable="0">
          <mxGeometry x="299.63414634146335" width="239.70731707317074" height="263.0489189189189" as="geometry" />
        </mxCell>
        <mxCell id="I24JLP84bpcqeDf-n0PY-40" value="" style="rounded=0;whiteSpace=wrap;html=1;strokeColor=default;fillColor=none;" parent="I24JLP84bpcqeDf-n0PY-84" vertex="1">
          <mxGeometry x="74.32366512854315" y="98.97435897435898" width="116.52439024390242" height="147.43589743589743" as="geometry" />
        </mxCell>
        <mxCell id="I24JLP84bpcqeDf-n0PY-41" value="" style="endArrow=classic;html=1;rounded=0;" parent="I24JLP84bpcqeDf-n0PY-84" edge="1">
          <mxGeometry x="-1" y="36" width="50" height="50" relative="1" as="geometry">
            <mxPoint x="132.2709294660514" y="169.74358974358972" as="sourcePoint" />
            <mxPoint x="132.2709294660514" y="57.69230769230768" as="targetPoint" />
            <mxPoint x="-5" y="45" as="offset" />
          </mxGeometry>
        </mxCell>
        <mxCell id="I24JLP84bpcqeDf-n0PY-42" value="x&lt;sub&gt;b&lt;/sub&gt;" style="edgeLabel;html=1;align=center;verticalAlign=middle;resizable=0;points=[];fontSize=20;rounded=0;" parent="I24JLP84bpcqeDf-n0PY-41" vertex="1" connectable="0">
          <mxGeometry x="0.8526" y="1" relative="1" as="geometry">
            <mxPoint x="26" as="offset" />
          </mxGeometry>
        </mxCell>
        <mxCell id="I24JLP84bpcqeDf-n0PY-43" value="" style="endArrow=classic;html=1;rounded=0;" parent="I24JLP84bpcqeDf-n0PY-84" edge="1">
          <mxGeometry x="-1" y="36" width="50" height="50" relative="1" as="geometry">
            <mxPoint x="132.2709294660514" y="169.74358974358972" as="sourcePoint" />
            <mxPoint y="169.74358974358972" as="targetPoint" />
            <mxPoint x="-5" y="45" as="offset" />
          </mxGeometry>
        </mxCell>
        <mxCell id="I24JLP84bpcqeDf-n0PY-44" value="y&lt;sub&gt;b&lt;/sub&gt;" style="edgeLabel;html=1;align=center;verticalAlign=middle;resizable=0;points=[];fontSize=20;rounded=0;" parent="I24JLP84bpcqeDf-n0PY-43" vertex="1" connectable="0">
          <mxGeometry x="0.7714" y="-2" relative="1" as="geometry">
            <mxPoint y="22" as="offset" />
          </mxGeometry>
        </mxCell>
        <mxCell id="I24JLP84bpcqeDf-n0PY-51" value="" style="endArrow=classic;html=1;rounded=0;strokeColor=light-dark(#000000,#FF3333);" parent="I24JLP84bpcqeDf-n0PY-84" edge="1">
          <mxGeometry x="-1" y="36" width="50" height="50" relative="1" as="geometry">
            <mxPoint x="199.98104812129205" y="93.47461538461539" as="sourcePoint" />
            <mxPoint x="239.70731707317074" y="93" as="targetPoint" />
            <mxPoint x="-5" y="45" as="offset" />
          </mxGeometry>
        </mxCell>
        <mxCell id="I24JLP84bpcqeDf-n0PY-53" value="" style="endArrow=classic;html=1;rounded=0;strokeColor=light-dark(#000000,#3333FF);" parent="I24JLP84bpcqeDf-n0PY-84" edge="1">
          <mxGeometry x="-1" y="36" width="50" height="50" relative="1" as="geometry">
            <mxPoint x="132.2709294660514" y="169.74358974358972" as="sourcePoint" />
            <mxPoint x="132.2709294660514" y="134.35897435897436" as="targetPoint" />
            <mxPoint x="-5" y="45" as="offset" />
          </mxGeometry>
        </mxCell>
        <mxCell id="I24JLP84bpcqeDf-n0PY-54" value="v&lt;sub&gt;b,x&lt;/sub&gt;" style="edgeLabel;html=1;align=center;verticalAlign=middle;resizable=0;points=[];fontSize=18;rounded=0;" parent="I24JLP84bpcqeDf-n0PY-53" vertex="1" connectable="0">
          <mxGeometry x="0.2667" y="-2" relative="1" as="geometry">
            <mxPoint x="-27" y="-2" as="offset" />
          </mxGeometry>
        </mxCell>
        <mxCell id="I24JLP84bpcqeDf-n0PY-55" value="" style="endArrow=classic;html=1;rounded=0;strokeColor=light-dark(#000000,#3333FF);" parent="I24JLP84bpcqeDf-n0PY-84" edge="1">
          <mxGeometry x="-1" y="36" width="50" height="50" relative="1" as="geometry">
            <mxPoint x="132.2709294660514" y="169.74358974358972" as="sourcePoint" />
            <mxPoint x="81.88200395517467" y="169.74358974358972" as="targetPoint" />
            <mxPoint x="-5" y="45" as="offset" />
          </mxGeometry>
        </mxCell>
        <mxCell id="I24JLP84bpcqeDf-n0PY-56" value="v&lt;sub&gt;b,y&lt;/sub&gt;" style="edgeLabel;html=1;align=center;verticalAlign=middle;resizable=0;points=[];fontSize=18;rounded=0;" parent="I24JLP84bpcqeDf-n0PY-55" vertex="1" connectable="0">
          <mxGeometry x="0.375" y="-2" relative="1" as="geometry">
            <mxPoint y="22" as="offset" />
          </mxGeometry>
        </mxCell>
        <mxCell id="I24JLP84bpcqeDf-n0PY-57" value="0" style="rounded=0;whiteSpace=wrap;html=1;fillColor=light-dark(#FFFFFF,#292929);rotation=90;" parent="I24JLP84bpcqeDf-n0PY-84" vertex="1">
          <mxGeometry x="69.91463414634147" y="70" width="18.895847066578774" height="47.17948717948718" as="geometry" />
        </mxCell>
        <mxCell id="I24JLP84bpcqeDf-n0PY-58" value="1" style="rounded=0;whiteSpace=wrap;html=1;fillColor=light-dark(#FFFFFF,#292929);rotation=90;" parent="I24JLP84bpcqeDf-n0PY-84" vertex="1">
          <mxGeometry x="171.9503325642715" y="69.99971586971589" width="18.895847066578774" height="47.17948717948718" as="geometry" />
        </mxCell>
        <mxCell id="I24JLP84bpcqeDf-n0PY-59" value="2" style="rounded=0;whiteSpace=wrap;html=1;fillColor=light-dark(#FFFFFF,#292929);rotation=90;" parent="I24JLP84bpcqeDf-n0PY-84" vertex="1">
          <mxGeometry x="69.91491793012521" y="229.99971586971589" width="18.895847066578774" height="47.17948717948718" as="geometry" />
        </mxCell>
        <mxCell id="I24JLP84bpcqeDf-n0PY-60" value="3" style="rounded=0;whiteSpace=wrap;html=1;fillColor=light-dark(#FFFFFF,#292929);rotation=90;" parent="I24JLP84bpcqeDf-n0PY-84" vertex="1">
          <mxGeometry x="171.9503325642715" y="229.99971586971589" width="18.895847066578774" height="47.17948717948718" as="geometry" />
        </mxCell>
        <mxCell id="I24JLP84bpcqeDf-n0PY-63" value="" style="endArrow=classic;html=1;rounded=0;strokeColor=light-dark(#000000,#FF3333);" parent="I24JLP84bpcqeDf-n0PY-84" edge="1">
          <mxGeometry x="-1" y="36" width="50" height="50" relative="1" as="geometry">
            <mxPoint x="99.87804878048773" y="93.5646153846154" as="sourcePoint" />
            <mxPoint x="139.60431773236644" y="93.09" as="targetPoint" />
            <mxPoint x="-5" y="45" as="offset" />
          </mxGeometry>
        </mxCell>
        <mxCell id="I24JLP84bpcqeDf-n0PY-64" value="" style="endArrow=classic;html=1;rounded=0;strokeColor=light-dark(#000000,#FF3333);" parent="I24JLP84bpcqeDf-n0PY-84" edge="1">
          <mxGeometry x="-1" y="36" width="50" height="50" relative="1" as="geometry">
            <mxPoint x="199.75609756097558" y="253.56461538461537" as="sourcePoint" />
            <mxPoint x="239.48236651285427" y="253.08999999999997" as="targetPoint" />
            <mxPoint x="-5" y="45" as="offset" />
          </mxGeometry>
        </mxCell>
        <mxCell id="I24JLP84bpcqeDf-n0PY-65" value="" style="endArrow=classic;html=1;rounded=0;strokeColor=light-dark(#000000,#FF3333);" parent="I24JLP84bpcqeDf-n0PY-84" edge="1">
          <mxGeometry x="-1" y="36" width="50" height="50" relative="1" as="geometry">
            <mxPoint x="99.87804878048779" y="253.56461538461542" as="sourcePoint" />
            <mxPoint x="139.6043177323665" y="253.09000000000003" as="targetPoint" />
            <mxPoint x="-5" y="45" as="offset" />
          </mxGeometry>
        </mxCell>
        <mxCell id="I24JLP84bpcqeDf-n0PY-66" value="Moving Right" style="text;html=1;align=center;verticalAlign=middle;resizable=0;points=[];autosize=1;strokeColor=none;fillColor=none;fontSize=19;rounded=0;" parent="I24JLP84bpcqeDf-n0PY-84" vertex="1">
          <mxGeometry x="67.66737804878049" width="130" height="40" as="geometry" />
        </mxCell>
        <mxCell id="6wpOpZpvDPQAx9jSgBEB-8" value="" style="curved=1;endArrow=classic;html=1;rounded=0;fillColor=#0050ef;strokeColor=light-dark(#001DBC,#0000FF);" parent="I24JLP84bpcqeDf-n0PY-84" edge="1">
          <mxGeometry width="50" height="50" relative="1" as="geometry">
            <mxPoint x="135.42464634146344" y="157.69" as="sourcePoint" />
            <mxPoint x="125.43684146341465" y="187.69" as="targetPoint" />
            <Array as="points">
              <mxPoint x="109.86585365853657" y="157.69" />
            </Array>
          </mxGeometry>
        </mxCell>
        <mxCell id="6wpOpZpvDPQAx9jSgBEB-15" value="&lt;h3&gt;&lt;font face=&quot;Courier New&quot;&gt;w&lt;sub&gt;b,z&lt;/sub&gt;&lt;/font&gt;&lt;/h3&gt;" style="edgeLabel;html=1;align=center;verticalAlign=middle;resizable=0;points=[];rounded=0;" parent="I24JLP84bpcqeDf-n0PY-84" connectable="0" vertex="1">
          <mxGeometry x="159.8048780487805" y="190" as="geometry" />
        </mxCell>
        <mxCell id="I24JLP84bpcqeDf-n0PY-92" value="" style="group;rounded=0;" parent="ZyXsbxzqqTQg3_kuBfod-10" vertex="1" connectable="0">
          <mxGeometry x="569.3048780487803" y="1.3499999999999943" width="204.95923170731706" height="260.35661122661134" as="geometry" />
        </mxCell>
        <mxCell id="I24JLP84bpcqeDf-n0PY-67" value="" style="rounded=0;whiteSpace=wrap;html=1;strokeColor=default;fillColor=none;" parent="I24JLP84bpcqeDf-n0PY-92" vertex="1">
          <mxGeometry x="74.32366512854315" y="96.28205128205127" width="116.52439024390242" height="147.43589743589743" as="geometry" />
        </mxCell>
        <mxCell id="I24JLP84bpcqeDf-n0PY-68" value="" style="endArrow=classic;html=1;rounded=0;" parent="I24JLP84bpcqeDf-n0PY-92" edge="1">
          <mxGeometry x="-1" y="36" width="50" height="50" relative="1" as="geometry">
            <mxPoint x="132.27092946605146" y="167.05128205128204" as="sourcePoint" />
            <mxPoint x="132.27092946605146" y="55" as="targetPoint" />
            <mxPoint x="-5" y="45" as="offset" />
          </mxGeometry>
        </mxCell>
        <mxCell id="I24JLP84bpcqeDf-n0PY-69" value="x&lt;sub&gt;b&lt;/sub&gt;" style="edgeLabel;html=1;align=center;verticalAlign=middle;resizable=0;points=[];fontSize=20;rounded=0;" parent="I24JLP84bpcqeDf-n0PY-68" vertex="1" connectable="0">
          <mxGeometry x="0.8526" y="1" relative="1" as="geometry">
            <mxPoint x="26" as="offset" />
          </mxGeometry>
        </mxCell>
        <mxCell id="I24JLP84bpcqeDf-n0PY-70" value="" style="endArrow=classic;html=1;rounded=0;" parent="I24JLP84bpcqeDf-n0PY-92" edge="1">
          <mxGeometry x="-1" y="36" width="50" height="50" relative="1" as="geometry">
            <mxPoint x="132.27092946605146" y="167.05128205128204" as="sourcePoint" />
            <mxPoint y="167.05128205128204" as="targetPoint" />
            <mxPoint x="-5" y="45" as="offset" />
          </mxGeometry>
        </mxCell>
        <mxCell id="I24JLP84bpcqeDf-n0PY-71" value="y&lt;sub&gt;b&lt;/sub&gt;" style="edgeLabel;html=1;align=center;verticalAlign=middle;resizable=0;points=[];fontSize=20;rounded=0;" parent="I24JLP84bpcqeDf-n0PY-70" vertex="1" connectable="0">
          <mxGeometry x="0.7714" y="-2" relative="1" as="geometry">
            <mxPoint y="22" as="offset" />
          </mxGeometry>
        </mxCell>
        <mxCell id="I24JLP84bpcqeDf-n0PY-73" value="" style="endArrow=classic;html=1;rounded=0;strokeColor=light-dark(#000000,#3333FF);" parent="I24JLP84bpcqeDf-n0PY-92" edge="1">
          <mxGeometry x="-1" y="36" width="50" height="50" relative="1" as="geometry">
            <mxPoint x="132.27092946605146" y="167.05128205128204" as="sourcePoint" />
            <mxPoint x="132.27092946605146" y="131.66666666666669" as="targetPoint" />
            <mxPoint x="-5" y="45" as="offset" />
          </mxGeometry>
        </mxCell>
        <mxCell id="I24JLP84bpcqeDf-n0PY-74" value="v&lt;sub&gt;b,x&lt;/sub&gt;" style="edgeLabel;html=1;align=center;verticalAlign=middle;resizable=0;points=[];fontSize=18;rounded=0;" parent="I24JLP84bpcqeDf-n0PY-73" vertex="1" connectable="0">
          <mxGeometry x="0.2667" y="-2" relative="1" as="geometry">
            <mxPoint x="-27" y="-2" as="offset" />
          </mxGeometry>
        </mxCell>
        <mxCell id="I24JLP84bpcqeDf-n0PY-75" value="" style="endArrow=classic;html=1;rounded=0;strokeColor=light-dark(#000000,#3333FF);" parent="I24JLP84bpcqeDf-n0PY-92" edge="1">
          <mxGeometry x="-1" y="36" width="50" height="50" relative="1" as="geometry">
            <mxPoint x="132.27092946605146" y="167.05128205128204" as="sourcePoint" />
            <mxPoint x="81.88200395517472" y="167.05128205128204" as="targetPoint" />
            <mxPoint x="-5" y="45" as="offset" />
          </mxGeometry>
        </mxCell>
        <mxCell id="I24JLP84bpcqeDf-n0PY-76" value="v&lt;sub&gt;b,y&lt;/sub&gt;" style="edgeLabel;html=1;align=center;verticalAlign=middle;resizable=0;points=[];fontSize=18;rounded=0;" parent="I24JLP84bpcqeDf-n0PY-75" vertex="1" connectable="0">
          <mxGeometry x="0.375" y="-2" relative="1" as="geometry">
            <mxPoint y="22" as="offset" />
          </mxGeometry>
        </mxCell>
        <mxCell id="I24JLP84bpcqeDf-n0PY-77" value="0" style="rounded=0;whiteSpace=wrap;html=1;fillColor=light-dark(#FFFFFF,#292929);rotation=90;" parent="I24JLP84bpcqeDf-n0PY-92" vertex="1">
          <mxGeometry x="69.91463414634147" y="67.30769230769232" width="18.895847066578774" height="47.17948717948718" as="geometry" />
        </mxCell>
        <mxCell id="I24JLP84bpcqeDf-n0PY-78" value="1" style="rounded=0;whiteSpace=wrap;html=1;fillColor=light-dark(#FFFFFF,#292929);rotation=90;" parent="I24JLP84bpcqeDf-n0PY-92" vertex="1">
          <mxGeometry x="171.9503325642715" y="67.3074081774082" width="18.895847066578774" height="47.17948717948718" as="geometry" />
        </mxCell>
        <mxCell id="I24JLP84bpcqeDf-n0PY-79" value="2" style="rounded=0;whiteSpace=wrap;html=1;fillColor=light-dark(#FFFFFF,#292929);rotation=90;" parent="I24JLP84bpcqeDf-n0PY-92" vertex="1">
          <mxGeometry x="69.91491793012527" y="227.3074081774082" width="18.895847066578774" height="47.17948717948718" as="geometry" />
        </mxCell>
        <mxCell id="I24JLP84bpcqeDf-n0PY-80" value="3" style="rounded=0;whiteSpace=wrap;html=1;fillColor=light-dark(#FFFFFF,#292929);rotation=90;" parent="I24JLP84bpcqeDf-n0PY-92" vertex="1">
          <mxGeometry x="171.9503325642715" y="227.3074081774082" width="18.895847066578774" height="47.17948717948718" as="geometry" />
        </mxCell>
        <mxCell id="I24JLP84bpcqeDf-n0PY-85" value="" style="endArrow=classic;html=1;rounded=0;strokeColor=light-dark(#000000,#FF3333);" parent="I24JLP84bpcqeDf-n0PY-92" edge="1">
          <mxGeometry x="-1" y="36" width="50" height="50" relative="1" as="geometry">
            <mxPoint x="49.939024390243894" y="90.87461538461537" as="sourcePoint" />
            <mxPoint x="9.987804878048781" y="90.39999999999998" as="targetPoint" />
            <mxPoint x="-5" y="45" as="offset" />
          </mxGeometry>
        </mxCell>
        <mxCell id="I24JLP84bpcqeDf-n0PY-88" value="" style="endArrow=classic;html=1;rounded=0;strokeColor=light-dark(#000000,#FF3333);" parent="I24JLP84bpcqeDf-n0PY-92" edge="1">
          <mxGeometry x="-1" y="36" width="50" height="50" relative="1" as="geometry">
            <mxPoint x="159.8048780487805" y="90.87461538461537" as="sourcePoint" />
            <mxPoint x="119.85365853658537" y="90.39999999999998" as="targetPoint" />
            <mxPoint x="-5" y="45" as="offset" />
          </mxGeometry>
        </mxCell>
        <mxCell id="I24JLP84bpcqeDf-n0PY-89" value="" style="endArrow=classic;html=1;rounded=0;strokeColor=light-dark(#000000,#FF3333);" parent="I24JLP84bpcqeDf-n0PY-92" edge="1">
          <mxGeometry x="-1" y="36" width="50" height="50" relative="1" as="geometry">
            <mxPoint x="159.8048780487805" y="250.87461538461537" as="sourcePoint" />
            <mxPoint x="119.85365853658537" y="250.39999999999998" as="targetPoint" />
            <mxPoint x="-5" y="45" as="offset" />
          </mxGeometry>
        </mxCell>
        <mxCell id="I24JLP84bpcqeDf-n0PY-90" value="" style="endArrow=classic;html=1;rounded=0;strokeColor=light-dark(#000000,#FF3333);" parent="I24JLP84bpcqeDf-n0PY-92" edge="1">
          <mxGeometry x="-1" y="36" width="50" height="50" relative="1" as="geometry">
            <mxPoint x="49.939024390243894" y="250.87461538461537" as="sourcePoint" />
            <mxPoint x="9.987804878048781" y="250.39999999999998" as="targetPoint" />
            <mxPoint x="-5" y="45" as="offset" />
          </mxGeometry>
        </mxCell>
        <mxCell id="I24JLP84bpcqeDf-n0PY-91" value="Moving Left" style="text;html=1;align=center;verticalAlign=middle;resizable=0;points=[];autosize=1;strokeColor=none;fillColor=none;fontSize=19;rounded=0;" parent="I24JLP84bpcqeDf-n0PY-92" vertex="1">
          <mxGeometry x="72.66128048780486" width="120" height="40" as="geometry" />
        </mxCell>
        <mxCell id="6wpOpZpvDPQAx9jSgBEB-10" value="" style="curved=1;endArrow=classic;html=1;rounded=0;fillColor=#0050ef;strokeColor=light-dark(#001DBC,#0000FF);" parent="I24JLP84bpcqeDf-n0PY-92" edge="1">
          <mxGeometry width="50" height="50" relative="1" as="geometry">
            <mxPoint x="145.36251219512204" y="155.00000000000003" as="sourcePoint" />
            <mxPoint x="135.37470731707324" y="185.00000000000003" as="targetPoint" />
            <Array as="points">
              <mxPoint x="119.80371951219517" y="155.00000000000003" />
            </Array>
          </mxGeometry>
        </mxCell>
        <mxCell id="6wpOpZpvDPQAx9jSgBEB-18" value="&lt;h3&gt;&lt;font face=&quot;Courier New&quot;&gt;w&lt;sub&gt;b,z&lt;/sub&gt;&lt;/font&gt;&lt;/h3&gt;" style="edgeLabel;html=1;align=center;verticalAlign=middle;resizable=0;points=[];rounded=0;" parent="I24JLP84bpcqeDf-n0PY-92" connectable="0" vertex="1">
          <mxGeometry x="159.8048780487805" y="188.65" as="geometry" />
        </mxCell>
        <mxCell id="I24JLP84bpcqeDf-n0PY-111" value="" style="group;rounded=0;" parent="ZyXsbxzqqTQg3_kuBfod-10" vertex="1" connectable="0">
          <mxGeometry x="659.1951219512196" y="510" width="159.8048780487805" height="200" as="geometry" />
        </mxCell>
        <mxCell id="I24JLP84bpcqeDf-n0PY-14" value="" style="endArrow=classic;html=1;rounded=0;" parent="I24JLP84bpcqeDf-n0PY-111" edge="1">
          <mxGeometry x="-1" y="36" width="50" height="50" relative="1" as="geometry">
            <mxPoint x="159.8048780487805" y="160" as="sourcePoint" />
            <mxPoint x="159.8048780487805" as="targetPoint" />
            <mxPoint x="-5" y="45" as="offset" />
          </mxGeometry>
        </mxCell>
        <mxCell id="I24JLP84bpcqeDf-n0PY-19" value="&lt;font style=&quot;font-size: 20px;&quot;&gt;x&lt;sub style=&quot;&quot;&gt;w&lt;/sub&gt;&lt;/font&gt;" style="edgeLabel;html=1;align=center;verticalAlign=middle;resizable=0;points=[];rounded=0;" parent="I24JLP84bpcqeDf-n0PY-14" vertex="1" connectable="0">
          <mxGeometry x="0.65" y="2" relative="1" as="geometry">
            <mxPoint x="22" as="offset" />
          </mxGeometry>
        </mxCell>
        <mxCell id="I24JLP84bpcqeDf-n0PY-15" value="" style="endArrow=classic;html=1;rounded=0;" parent="I24JLP84bpcqeDf-n0PY-111" edge="1">
          <mxGeometry x="-1" y="36" width="50" height="50" relative="1" as="geometry">
            <mxPoint x="159.8048780487805" y="160" as="sourcePoint" />
            <mxPoint y="160" as="targetPoint" />
            <mxPoint x="-5" y="45" as="offset" />
          </mxGeometry>
        </mxCell>
        <mxCell id="I24JLP84bpcqeDf-n0PY-20" value="&lt;font style=&quot;font-size: 20px;&quot;&gt;y&lt;sub style=&quot;&quot;&gt;w&lt;/sub&gt;&lt;/font&gt;" style="text;html=1;align=center;verticalAlign=middle;resizable=0;points=[];autosize=1;strokeColor=none;fillColor=none;rounded=0;" parent="I24JLP84bpcqeDf-n0PY-111" vertex="1">
          <mxGeometry x="9.987804878048781" y="160" width="50" height="40" as="geometry" />
        </mxCell>
        <mxCell id="6wpOpZpvDPQAx9jSgBEB-22" value="" style="group;rounded=0;" parent="ZyXsbxzqqTQg3_kuBfod-10" connectable="0" vertex="1">
          <mxGeometry x="309.6219512195122" y="380" width="244.70121951219508" height="240" as="geometry" />
        </mxCell>
        <mxCell id="I24JLP84bpcqeDf-n0PY-97" value="" style="endArrow=classic;html=1;rounded=0;" parent="6wpOpZpvDPQAx9jSgBEB-22" edge="1">
          <mxGeometry x="-1" y="36" width="50" height="50" relative="1" as="geometry">
            <mxPoint x="132.2709294660514" y="119.74358974358972" as="sourcePoint" />
            <mxPoint y="119.74358974358972" as="targetPoint" />
            <mxPoint x="-5" y="45" as="offset" />
          </mxGeometry>
        </mxCell>
        <mxCell id="I24JLP84bpcqeDf-n0PY-98" value="y&lt;sub&gt;b&lt;/sub&gt;" style="edgeLabel;html=1;align=center;verticalAlign=middle;resizable=0;points=[];fontSize=20;rounded=0;" parent="I24JLP84bpcqeDf-n0PY-97" vertex="1" connectable="0">
          <mxGeometry x="0.7714" y="-2" relative="1" as="geometry">
            <mxPoint y="22" as="offset" />
          </mxGeometry>
        </mxCell>
        <mxCell id="6wpOpZpvDPQAx9jSgBEB-23" value="" style="group;rounded=0;" parent="6wpOpZpvDPQAx9jSgBEB-22" connectable="0" vertex="1">
          <mxGeometry x="34.957317073170735" width="209.7439024390244" height="240" as="geometry" />
        </mxCell>
        <mxCell id="I24JLP84bpcqeDf-n0PY-94" value="" style="rounded=0;whiteSpace=wrap;html=1;strokeColor=default;fillColor=none;" parent="6wpOpZpvDPQAx9jSgBEB-23" vertex="1">
          <mxGeometry x="39.36634805537244" y="48.974358974359006" width="116.52439024390242" height="147.43589743589743" as="geometry" />
        </mxCell>
        <mxCell id="I24JLP84bpcqeDf-n0PY-95" value="" style="endArrow=classic;html=1;rounded=0;" parent="6wpOpZpvDPQAx9jSgBEB-23" edge="1">
          <mxGeometry x="-1" y="36" width="50" height="50" relative="1" as="geometry">
            <mxPoint x="97.31361239288069" y="119.74358974358972" as="sourcePoint" />
            <mxPoint x="97.31361239288069" y="7.692307692307679" as="targetPoint" />
            <mxPoint x="-5" y="45" as="offset" />
          </mxGeometry>
        </mxCell>
        <mxCell id="I24JLP84bpcqeDf-n0PY-96" value="x&lt;sub&gt;b&lt;/sub&gt;" style="edgeLabel;html=1;align=center;verticalAlign=middle;resizable=0;points=[];fontSize=20;rounded=0;" parent="I24JLP84bpcqeDf-n0PY-95" vertex="1" connectable="0">
          <mxGeometry x="0.8526" y="1" relative="1" as="geometry">
            <mxPoint x="26" as="offset" />
          </mxGeometry>
        </mxCell>
        <mxCell id="I24JLP84bpcqeDf-n0PY-99" value="0" style="rounded=0;whiteSpace=wrap;html=1;fillColor=light-dark(#FFFFFF,#292929);rotation=45;" parent="6wpOpZpvDPQAx9jSgBEB-23" vertex="1">
          <mxGeometry x="29.95891562294002" y="25.38461538461536" width="18.895847066578774" height="47.17948717948718" as="geometry" />
        </mxCell>
        <mxCell id="I24JLP84bpcqeDf-n0PY-102" value="1" style="rounded=0;whiteSpace=wrap;html=1;fillColor=light-dark(#FFFFFF,#292929);rotation=-45;" parent="6wpOpZpvDPQAx9jSgBEB-23" vertex="1">
          <mxGeometry x="149.8181529334212" y="25.38461538461536" width="18.895847066578774" height="47.17948717948718" as="geometry" />
        </mxCell>
        <mxCell id="I24JLP84bpcqeDf-n0PY-107" value="" style="endArrow=classic;html=1;rounded=0;strokeColor=light-dark(#000000,#3333FF);" parent="6wpOpZpvDPQAx9jSgBEB-23" edge="1">
          <mxGeometry x="-1" y="36" width="50" height="50" relative="1" as="geometry">
            <mxPoint x="97.31361239288069" y="119.74358974358972" as="sourcePoint" />
            <mxPoint x="97.31361239288069" y="84.35897435897436" as="targetPoint" />
            <mxPoint x="-5" y="45" as="offset" />
          </mxGeometry>
        </mxCell>
        <mxCell id="I24JLP84bpcqeDf-n0PY-108" value="v&lt;sub&gt;b,x&lt;/sub&gt;" style="edgeLabel;html=1;align=center;verticalAlign=middle;resizable=0;points=[];fontSize=18;rounded=0;" parent="I24JLP84bpcqeDf-n0PY-107" vertex="1" connectable="0">
          <mxGeometry x="0.2667" y="-2" relative="1" as="geometry">
            <mxPoint x="23" y="-18" as="offset" />
          </mxGeometry>
        </mxCell>
        <mxCell id="I24JLP84bpcqeDf-n0PY-109" value="" style="endArrow=classic;html=1;rounded=0;strokeColor=light-dark(#000000,#3333FF);" parent="6wpOpZpvDPQAx9jSgBEB-23" edge="1">
          <mxGeometry x="-1" y="36" width="50" height="50" relative="1" as="geometry">
            <mxPoint x="97.31361239288069" y="119.74358974358972" as="sourcePoint" />
            <mxPoint x="46.924686882003925" y="119.74358974358972" as="targetPoint" />
            <mxPoint x="-5" y="45" as="offset" />
          </mxGeometry>
        </mxCell>
        <mxCell id="I24JLP84bpcqeDf-n0PY-110" value="v&lt;sub&gt;b,y&lt;/sub&gt;" style="edgeLabel;html=1;align=center;verticalAlign=middle;resizable=0;points=[];fontSize=18;rounded=0;" parent="I24JLP84bpcqeDf-n0PY-109" vertex="1" connectable="0">
          <mxGeometry x="0.375" y="-2" relative="1" as="geometry">
            <mxPoint y="22" as="offset" />
          </mxGeometry>
        </mxCell>
        <mxCell id="I24JLP84bpcqeDf-n0PY-113" value="3" style="rounded=0;whiteSpace=wrap;html=1;fillColor=light-dark(#FFFFFF,#292929);rotation=45;" parent="6wpOpZpvDPQAx9jSgBEB-23" vertex="1">
          <mxGeometry x="149.81692947562678" y="172.81957199915905" width="18.895847066578774" height="47.17948717948718" as="geometry" />
        </mxCell>
        <mxCell id="I24JLP84bpcqeDf-n0PY-114" value="2" style="rounded=0;whiteSpace=wrap;html=1;fillColor=light-dark(#FFFFFF,#292929);rotation=-45;" parent="6wpOpZpvDPQAx9jSgBEB-23" vertex="1">
          <mxGeometry x="29.9632709390413" y="172.81957199915894" width="18.895847066578774" height="47.17948717948718" as="geometry" />
        </mxCell>
        <mxCell id="I24JLP84bpcqeDf-n0PY-115" value="" style="endArrow=classic;html=1;rounded=0;strokeColor=light-dark(#000000,#FF3333);" parent="6wpOpZpvDPQAx9jSgBEB-23" edge="1">
          <mxGeometry x="-1" y="36" width="50" height="50" relative="1" as="geometry">
            <mxPoint x="54.39358536585364" y="30.47461538461539" as="sourcePoint" />
            <mxPoint x="85.43568292682927" as="targetPoint" />
            <mxPoint x="-5" y="45" as="offset" />
          </mxGeometry>
        </mxCell>
        <mxCell id="I24JLP84bpcqeDf-n0PY-116" value="" style="endArrow=classic;html=1;rounded=0;strokeColor=light-dark(#000000,#FF3333);" parent="6wpOpZpvDPQAx9jSgBEB-23" edge="1">
          <mxGeometry x="-1" y="36" width="50" height="50" relative="1" as="geometry">
            <mxPoint x="179.78048780487805" y="67.00461538461536" as="sourcePoint" />
            <mxPoint x="209.7439024390244" y="100" as="targetPoint" />
            <mxPoint x="-5" y="45" as="offset" />
          </mxGeometry>
        </mxCell>
        <mxCell id="I24JLP84bpcqeDf-n0PY-117" value="" style="endArrow=classic;html=1;rounded=0;strokeColor=light-dark(#000000,#FF3333);" parent="6wpOpZpvDPQAx9jSgBEB-23" edge="1">
          <mxGeometry x="-1" y="36" width="50" height="50" relative="1" as="geometry">
            <mxPoint x="139.82926829268294" y="210" as="sourcePoint" />
            <mxPoint x="109.86585365853657" y="240" as="targetPoint" />
            <mxPoint x="-5" y="45" as="offset" />
          </mxGeometry>
        </mxCell>
        <mxCell id="I24JLP84bpcqeDf-n0PY-118" value="" style="endArrow=classic;html=1;rounded=0;strokeColor=light-dark(#000000,#FF3333);" parent="6wpOpZpvDPQAx9jSgBEB-23" edge="1">
          <mxGeometry x="-1" y="36" width="50" height="50" relative="1" as="geometry">
            <mxPoint x="29.963414634146343" y="180" as="sourcePoint" />
            <mxPoint y="150" as="targetPoint" />
            <mxPoint x="-5" y="45" as="offset" />
          </mxGeometry>
        </mxCell>
        <mxCell id="6wpOpZpvDPQAx9jSgBEB-11" value="" style="curved=1;endArrow=classic;html=1;rounded=0;fillColor=#0050ef;strokeColor=light-dark(#001DBC,#0000FF);" parent="6wpOpZpvDPQAx9jSgBEB-23" edge="1">
          <mxGeometry width="50" height="50" relative="1" as="geometry">
            <mxPoint x="110.40519512195117" y="107.69000000000005" as="sourcePoint" />
            <mxPoint x="100.41739024390239" y="137.69000000000005" as="targetPoint" />
            <Array as="points">
              <mxPoint x="84.84640243902436" y="107.69000000000005" />
            </Array>
          </mxGeometry>
        </mxCell>
        <mxCell id="6wpOpZpvDPQAx9jSgBEB-21" value="&lt;h3&gt;&lt;font face=&quot;Courier New&quot;&gt;w&lt;sub&gt;b,z&lt;/sub&gt;&lt;/font&gt;&lt;/h3&gt;" style="edgeLabel;html=1;align=center;verticalAlign=middle;resizable=0;points=[];rounded=0;" parent="6wpOpZpvDPQAx9jSgBEB-23" connectable="0" vertex="1">
          <mxGeometry x="119.85365853658537" y="140" as="geometry" />
        </mxCell>
        <mxCell id="6wpOpZpvDPQAx9jSgBEB-24" value="&lt;font style=&quot;font-size: 19px;&quot;&gt;Rotating Clockwise&lt;/font&gt;" style="text;html=1;align=center;verticalAlign=middle;resizable=0;points=[];autosize=1;strokeColor=none;fillColor=none;rounded=0;" parent="ZyXsbxzqqTQg3_kuBfod-10" vertex="1">
          <mxGeometry x="349.57317073170725" y="313" width="190" height="40" as="geometry" />
        </mxCell>
        <mxCell id="ZyXsbxzqqTQg3_kuBfod-8" value="&lt;font face=&quot;Courier New&quot; style=&quot;font-size: 21px; color: rgb(199, 53, 0);&quot;&gt;l&lt;/font&gt;" style="text;html=1;align=center;verticalAlign=middle;resizable=0;points=[];autosize=1;strokeColor=none;fillColor=none;rounded=0;" parent="ZyXsbxzqqTQg3_kuBfod-10" vertex="1">
          <mxGeometry y="163" width="40" height="40" as="geometry" />
        </mxCell>
        <mxCell id="Q6HfDDIRDBV7WV6HUaaa-21" value="" style="group" vertex="1" connectable="0" parent="1">
          <mxGeometry x="-204.99999999999955" y="136" width="394.49999999999955" height="350" as="geometry" />
        </mxCell>
        <mxCell id="ZyXsbxzqqTQg3_kuBfod-12" value="" style="rounded=0;whiteSpace=wrap;html=1;strokeColor=default;fillColor=none;" parent="Q6HfDDIRDBV7WV6HUaaa-21" vertex="1">
          <mxGeometry x="140.11999999999955" y="70" width="178.76" height="210" as="geometry" />
        </mxCell>
        <mxCell id="ZyXsbxzqqTQg3_kuBfod-13" value="" style="rounded=0;whiteSpace=wrap;html=1;rotation=-225;" parent="Q6HfDDIRDBV7WV6HUaaa-21" vertex="1">
          <mxGeometry x="79.99999999999955" y="50" width="100" height="20" as="geometry" />
        </mxCell>
        <mxCell id="ZyXsbxzqqTQg3_kuBfod-21" value="" style="endArrow=none;dashed=1;html=1;dashPattern=1 3;strokeWidth=2;rounded=0;" parent="Q6HfDDIRDBV7WV6HUaaa-21" edge="1">
          <mxGeometry width="50" height="50" relative="1" as="geometry">
            <mxPoint x="228.99999999999955" y="350" as="sourcePoint" />
            <mxPoint x="228.99999999999955" as="targetPoint" />
          </mxGeometry>
        </mxCell>
        <mxCell id="ZyXsbxzqqTQg3_kuBfod-22" value="" style="endArrow=none;dashed=1;html=1;dashPattern=1 3;strokeWidth=2;rounded=0;" parent="Q6HfDDIRDBV7WV6HUaaa-21" edge="1">
          <mxGeometry width="50" height="50" relative="1" as="geometry">
            <mxPoint x="64.49999999999955" y="170" as="sourcePoint" />
            <mxPoint x="394.49999999999955" y="170" as="targetPoint" />
          </mxGeometry>
        </mxCell>
        <mxCell id="ZyXsbxzqqTQg3_kuBfod-31" value="" style="group;rounded=0;" parent="Q6HfDDIRDBV7WV6HUaaa-21" connectable="0" vertex="1">
          <mxGeometry x="177.99999999999955" y="120" width="50" height="50" as="geometry" />
        </mxCell>
        <mxCell id="ZyXsbxzqqTQg3_kuBfod-23" value="" style="endArrow=classic;html=1;rounded=0;strokeColor=light-dark(#001DBC,#0000FF);" parent="ZyXsbxzqqTQg3_kuBfod-31" edge="1">
          <mxGeometry width="50" height="50" relative="1" as="geometry">
            <mxPoint x="50" y="50" as="sourcePoint" />
            <mxPoint x="50" as="targetPoint" />
          </mxGeometry>
        </mxCell>
        <mxCell id="ZyXsbxzqqTQg3_kuBfod-28" value="&lt;font style=&quot;font-size: 16px;&quot;&gt;V&lt;sub style=&quot;&quot;&gt;b,x&lt;/sub&gt;&lt;/font&gt;" style="edgeLabel;html=1;align=center;verticalAlign=middle;resizable=0;points=[];rounded=0;" parent="ZyXsbxzqqTQg3_kuBfod-23" connectable="0" vertex="1">
          <mxGeometry x="-0.16" y="-2" relative="1" as="geometry">
            <mxPoint x="28" as="offset" />
          </mxGeometry>
        </mxCell>
        <mxCell id="ZyXsbxzqqTQg3_kuBfod-24" value="" style="endArrow=classic;html=1;rounded=0;fontColor=light-dark(#001DBC,#0000FF);strokeColor=light-dark(#001DBC,#0000FF);" parent="ZyXsbxzqqTQg3_kuBfod-31" edge="1">
          <mxGeometry width="50" height="50" relative="1" as="geometry">
            <mxPoint x="50" y="50" as="sourcePoint" />
            <mxPoint y="50" as="targetPoint" />
          </mxGeometry>
        </mxCell>
        <mxCell id="ZyXsbxzqqTQg3_kuBfod-30" value="&lt;font style=&quot;font-size: 16px;&quot;&gt;V&lt;sub style=&quot;&quot;&gt;b,y&lt;/sub&gt;&lt;/font&gt;" style="edgeLabel;html=1;align=center;verticalAlign=middle;resizable=0;points=[];rounded=0;" parent="ZyXsbxzqqTQg3_kuBfod-24" connectable="0" vertex="1">
          <mxGeometry x="-0.28" y="1" relative="1" as="geometry">
            <mxPoint x="-2" y="19" as="offset" />
          </mxGeometry>
        </mxCell>
        <mxCell id="a6fyO12AGLbX-8v9-9ma-28" value="" style="curved=1;endArrow=classic;html=1;rounded=0;" parent="Q6HfDDIRDBV7WV6HUaaa-21" edge="1">
          <mxGeometry width="50" height="50" relative="1" as="geometry">
            <mxPoint x="118.99999999999955" y="32" as="sourcePoint" />
            <mxPoint x="52.999999999999545" y="108" as="targetPoint" />
            <Array as="points">
              <mxPoint x="52.999999999999545" y="32" />
            </Array>
          </mxGeometry>
        </mxCell>
        <mxCell id="Q6HfDDIRDBV7WV6HUaaa-8" value="" style="group" vertex="1" connectable="0" parent="Q6HfDDIRDBV7WV6HUaaa-21">
          <mxGeometry x="71.99999999999955" y="3" width="117" height="116" as="geometry" />
        </mxCell>
        <mxCell id="ZyXsbxzqqTQg3_kuBfod-32" value="" style="endArrow=none;dashed=1;html=1;dashPattern=1 3;strokeWidth=2;rounded=0;strokeColor=light-dark(#000000,#0000FF);" parent="Q6HfDDIRDBV7WV6HUaaa-8" edge="1">
          <mxGeometry width="50" height="50" relative="1" as="geometry">
            <mxPoint x="59.670000000000016" y="116" as="sourcePoint" />
            <mxPoint x="60" as="targetPoint" />
          </mxGeometry>
        </mxCell>
        <mxCell id="ZyXsbxzqqTQg3_kuBfod-33" value="" style="endArrow=none;dashed=1;html=1;dashPattern=1 3;strokeWidth=2;rounded=0;strokeColor=light-dark(#000000,#0000FF);" parent="Q6HfDDIRDBV7WV6HUaaa-8" edge="1">
          <mxGeometry width="50" height="50" relative="1" as="geometry">
            <mxPoint x="117" y="59.26109550561799" as="sourcePoint" />
            <mxPoint y="59.26109550561799" as="targetPoint" />
          </mxGeometry>
        </mxCell>
        <mxCell id="Q6HfDDIRDBV7WV6HUaaa-9" value="i" style="text;strokeColor=none;align=center;fillColor=none;html=1;verticalAlign=middle;whiteSpace=wrap;rounded=0;" vertex="1" parent="Q6HfDDIRDBV7WV6HUaaa-21">
          <mxGeometry x="137.99999999999955" y="42" width="12" height="8" as="geometry" />
        </mxCell>
        <mxCell id="Q6HfDDIRDBV7WV6HUaaa-17" value="" style="group" vertex="1" connectable="0" parent="Q6HfDDIRDBV7WV6HUaaa-21">
          <mxGeometry y="117.50417475728153" width="78.99999999999955" height="59.49582524271847" as="geometry" />
        </mxCell>
        <mxCell id="a6fyO12AGLbX-8v9-9ma-22" value="" style="endArrow=classic;html=1;rounded=0;strokeColor=light-dark(#000000,#CC0000);" parent="Q6HfDDIRDBV7WV6HUaaa-17" edge="1">
          <mxGeometry width="50" height="50" relative="1" as="geometry">
            <mxPoint x="66.99999999999955" y="0.4958252427184675" as="sourcePoint" />
            <mxPoint x="20.999999999999545" y="45.49582524271847" as="targetPoint" />
          </mxGeometry>
        </mxCell>
        <mxCell id="Q6HfDDIRDBV7WV6HUaaa-12" value="" style="endArrow=classic;html=1;rounded=0;strokeColor=light-dark(#000000,#CC0000);fontColor=light-dark(#000000,#0000CC);" edge="1" parent="Q6HfDDIRDBV7WV6HUaaa-17">
          <mxGeometry width="50" height="50" relative="1" as="geometry">
            <mxPoint x="67" y="0.49082524271847205" as="sourcePoint" />
            <mxPoint y="0.49082524271847205" as="targetPoint" />
          </mxGeometry>
        </mxCell>
        <mxCell id="Q6HfDDIRDBV7WV6HUaaa-14" value="V&lt;sub&gt;i,x&lt;/sub&gt;" style="edgeLabel;html=1;align=center;verticalAlign=middle;resizable=0;points=[];labelBackgroundColor=none;" vertex="1" connectable="0" parent="Q6HfDDIRDBV7WV6HUaaa-12">
          <mxGeometry x="0.0178" relative="1" as="geometry">
            <mxPoint y="-10" as="offset" />
          </mxGeometry>
        </mxCell>
        <mxCell id="Q6HfDDIRDBV7WV6HUaaa-13" value="" style="endArrow=classic;html=1;rounded=0;strokeColor=light-dark(#000000,#CC0000);fontColor=light-dark(#000000,#0000CC);" edge="1" parent="Q6HfDDIRDBV7WV6HUaaa-17">
          <mxGeometry width="50" height="50" relative="1" as="geometry">
            <mxPoint x="66.99999999999955" as="sourcePoint" />
            <mxPoint x="66.99999999999955" y="59.49582524271847" as="targetPoint" />
          </mxGeometry>
        </mxCell>
        <mxCell id="Q6HfDDIRDBV7WV6HUaaa-16" value="V&lt;sub&gt;i,y&lt;/sub&gt;" style="edgeLabel;html=1;align=center;verticalAlign=middle;resizable=0;points=[];labelBackgroundColor=none;" vertex="1" connectable="0" parent="Q6HfDDIRDBV7WV6HUaaa-17">
          <mxGeometry x="78.99999999999955" y="25.495825242718468" as="geometry" />
        </mxCell>
        <mxCell id="Q6HfDDIRDBV7WV6HUaaa-19" value="" style="endArrow=classic;html=1;rounded=0;startSize=0;endSize=1;" edge="1" parent="Q6HfDDIRDBV7WV6HUaaa-17">
          <mxGeometry width="50" height="50" relative="1" as="geometry">
            <mxPoint x="71.49999999999955" y="16.495825242718468" as="sourcePoint" />
            <mxPoint x="86.49999999999955" y="16.495825242718468" as="targetPoint" />
          </mxGeometry>
        </mxCell>
        <mxCell id="Q6HfDDIRDBV7WV6HUaaa-20" value="" style="endArrow=classic;html=1;rounded=0;startSize=0;endSize=1;" edge="1" parent="Q6HfDDIRDBV7WV6HUaaa-21">
          <mxGeometry width="50" height="50" relative="1" as="geometry">
            <mxPoint x="32.999999999999545" y="99" as="sourcePoint" />
            <mxPoint x="17.999999999999545" y="99" as="targetPoint" />
          </mxGeometry>
        </mxCell>
        <mxCell id="Q6HfDDIRDBV7WV6HUaaa-22" value="&lt;font style=&quot;font-size: 18px;&quot;&gt;i is wheel index&lt;/font&gt;&lt;div&gt;&lt;br&gt;&lt;/div&gt;" style="text;strokeColor=none;align=center;fillColor=none;html=1;verticalAlign=middle;whiteSpace=wrap;rounded=0;" vertex="1" parent="Q6HfDDIRDBV7WV6HUaaa-21">
          <mxGeometry x="235" y="22" width="148" height="37" as="geometry" />
        </mxCell>
      </root>
    </mxGraphModel>
  </diagram>
</mxfile>
